<?xml version="1.0" encoding="UTF-8"?>
<svg version="1.1" xmlns="http://www.w3.org/2000/svg" width="500" height="500">
<path d="M0 0 C8.70283963 -0.07013161 17.405579 -0.12312673 26.10864162 -0.15543652 C30.15171368 -0.17095926 34.1945896 -0.19194577 38.23754883 -0.22631836 C42.15389437 -0.25939846 46.07005371 -0.27695305 49.9865284 -0.28463173 C51.4657388 -0.29008951 52.94494136 -0.30074068 54.42407036 -0.31719017 C67.85723001 -0.46036399 82.62997115 0.08482697 94.625 6.75 C95.28540283 7.09998047 95.94580566 7.44996094 96.6262207 7.81054688 C108.83779019 14.52744149 114.33966385 25.20511035 118.69140625 38.0390625 C122.3910479 51.44056163 120.73695315 66.926247 114.15234375 79.1015625 C107.28495281 90.41529808 98.61069226 97.63929333 86 102 C82.31523369 102.66676724 78.74235167 102.98500059 75 103 C75 103.66 75 104.32 75 105 C73.515 104.505 73.515 104.505 72 104 C69.12019048 103.98365727 66.27085218 104.02576503 63.39453125 104.12109375 C62.55532639 104.14470474 61.71612152 104.16831573 60.85148621 104.19264221 C58.1716488 104.26920276 55.49210593 104.35325981 52.8125 104.4375 C50.99545711 104.49072831 49.17839986 104.54346866 47.36132812 104.59570312 C42.90736565 104.72480762 38.45365278 104.86063571 34 105 C34.00222061 105.64701874 34.00444122 106.29403748 34.00672913 106.96066284 C34.02879968 113.67608083 34.04391404 120.39148856 34.05493164 127.10693359 C34.05997003 129.61540139 34.06680084 132.12386624 34.07543945 134.63232422 C34.08752661 138.2314527 34.09323315 141.83054247 34.09765625 145.4296875 C34.10281754 146.55680145 34.10797882 147.68391541 34.11329651 148.84518433 C34.11337204 149.88611237 34.11344757 150.92704041 34.11352539 151.99951172 C34.115746 152.91884491 34.11796661 153.8381781 34.12025452 154.78536987 C34 157 34 157 33 159 C22.44 159 11.88 159 1 159 C-1.05849678 154.88300643 -1.24940965 153.19631031 -1.24723816 148.72396851 C-1.25143265 147.4339946 -1.25562714 146.14402069 -1.25994873 144.81495667 C-1.25446552 143.38754197 -1.24878255 141.96012803 -1.24291992 140.53271484 C-1.24399297 139.02799904 -1.24593198 137.52328364 -1.24867249 136.01856995 C-1.25351956 131.93405122 -1.24586744 127.84964176 -1.23571944 123.76513624 C-1.22693912 119.49394828 -1.22869637 115.22276375 -1.2290802 110.9515686 C-1.22814371 103.78084483 -1.21946074 96.61016338 -1.20581055 89.43945312 C-1.19007322 81.14151075 -1.18481286 72.84361469 -1.1855461 64.54565847 C-1.18615577 56.5697149 -1.18105671 48.59378647 -1.17275429 40.61784744 C-1.16921808 37.21995552 -1.16739056 33.82206894 -1.16686058 30.42417526 C-1.16585835 26.42692041 -1.15977162 22.42970465 -1.14969444 18.43246269 C-1.14676616 16.96264955 -1.14554474 15.49283192 -1.14612198 14.02301598 C-1.14661042 12.0226945 -1.14035535 10.02237471 -1.13371277 8.02206421 C-1.13203692 6.90082846 -1.13036108 5.7795927 -1.12863445 4.62438011 C-1 2 -1 2 0 0 Z M46.9375 29.4375 C45.06674805 29.51581055 45.06674805 29.51581055 43.15820312 29.59570312 C40.10515269 29.72437575 37.0525154 29.85929139 34 30 C32.67543071 39.00081339 32.88918124 47.98860182 32.9375 57.0625 C32.9425242 58.70768093 32.94708548 60.35286335 32.95117188 61.99804688 C32.96210658 65.99873498 32.9793207 69.99935088 33 74 C41.37293561 74.74823791 49.59109746 75.21867122 58 75 C59.13179688 74.97164062 60.26359375 74.94328125 61.4296875 74.9140625 C68.31354862 74.58020318 73.09285942 73.59061486 79 70 C79 69.34 79 68.68 79 68 C79.99 67.67 80.98 67.34 82 67 C86.83757905 59.75172103 86.75369695 52.50666326 85.25 44.25 C83.97930656 39.30459852 82.24153924 36.42166092 77.83203125 33.625 C67.79586806 28.14790009 58.12589253 28.92001454 46.9375 29.4375 Z " fill="#112E55" transform="translate(309,166)"/>
<path d="M0 0 C24.399375 -0.020625 48.79875 -0.04125 73.9375 -0.0625 C81.65503662 -0.071604 89.37257324 -0.08070801 97.32397461 -0.09008789 C106.71398926 -0.09460449 106.71398926 -0.09460449 111.10328674 -0.09544373 C114.18325005 -0.0963792 117.26319631 -0.10014177 120.34315491 -0.10557556 C124.26441311 -0.11240264 128.18564628 -0.11449713 132.10690987 -0.11307228 C133.55064665 -0.11337049 134.99438426 -0.11537225 136.43811595 -0.11921513 C138.37910212 -0.12414408 140.3201019 -0.12240369 142.26109314 -0.12025452 C143.35157424 -0.12117631 144.44205534 -0.1220981 145.56558132 -0.12304783 C148 0 148 0 149 1 C149.09772312 3.4915272 149.12995818 5.95530508 149.12025452 8.44728088 C149.12153615 9.63075093 149.12153615 9.63075093 149.12284368 10.83812946 C149.12450089 13.50221627 149.11897321 16.16624118 149.11352539 18.83032227 C149.11324354 20.73192341 149.1134012 22.63352466 149.1139679 24.53512573 C149.11425597 29.71466284 149.10835763 34.89417701 149.10139394 40.07370877 C149.09516206 45.48028527 149.09455673 50.88686224 149.09336853 56.29344177 C149.09025472 66.53925291 149.08204067 76.78505343 149.07201904 87.03085989 C149.05877464 100.87059431 149.0533584 114.71033161 149.04751682 128.55007076 C149.03810081 150.3667218 149.01818222 172.18335043 149 194 C99.83 194 50.66 194 0 194 C0 129.98 0 65.96 0 0 Z M18 18 C18 70.47 18 122.94 18 177 C55.29 177 92.58 177 131 177 C131 124.53 131 72.06 131 18 C93.71 18 56.42 18 18 18 Z " fill="#153056" transform="translate(69,146)"/>
<path d="M0 0 C2.40547515 0.47205567 4.80914112 0.95089854 7.2109375 1.44140625 C8.92021579 1.7837407 10.6333085 2.10835677 12.3515625 2.40234375 C18.26582322 3.49951226 22.90347446 5.84328678 28 9 C28 9.66 28 10.32 28 11 C29.65 11.66 31.3 12.32 33 13 C33 13.66 33 14.32 33 15 C33.66 15 34.32 15 35 15 C39.88939546 21.52373377 45.05759729 30.53922167 44 39 C42.25493385 40.74506615 39.80960857 40.23282784 37.43359375 40.31640625 C36.30888672 40.35830078 35.18417969 40.40019531 34.02539062 40.44335938 C32.84138672 40.48267578 31.65738281 40.52199219 30.4375 40.5625 C29.24962891 40.60568359 28.06175781 40.64886719 26.83789062 40.69335938 C23.89205216 40.79983546 20.9461257 40.90184841 18 41 C15.0546875 34.2890625 15.0546875 34.2890625 14.5625 31.6875 C14.13978112 29.84377404 14.13978112 29.84377404 12.3125 28.875 C4.47880015 25.91089735 -3.23793449 24.34474826 -11.515625 26.72265625 C-15.63810852 28.60831075 -18.35402879 30.61074345 -20 35 C-19.79356801 37.25328412 -19.79356801 37.25328412 -19 39 C-19.66 39 -20.32 39 -21 39 C-18.22368311 44.74795255 -15.62472471 47.93043454 -9.55517578 50.13085938 C-3.56530618 52.16830785 2.52979567 53.87319086 8.62109375 55.578125 C33.6038912 62.68217779 33.6038912 62.68217779 41 73 C41 73.66 41 74.32 41 75 C41.66 75 42.32 75 43 75 C45.21854707 79.62197306 46.38281159 82.76824163 46 88 C46.33 88 46.66 88 47 88 C47.13684211 96.21052632 47.13684211 96.21052632 46 100 C45.89429688 100.8971875 45.78859375 101.794375 45.6796875 102.71875 C44.90181637 106.47398996 43.516452 109.08456108 41.5625 112.375 C40.94503906 113.43460937 40.32757813 114.49421875 39.69140625 115.5859375 C39.13324219 116.38257813 38.57507813 117.17921875 38 118 C37.34 118 36.68 118 36 118 C36 118.66 36 119.32 36 120 C35.34 120 34.68 120 34 120 C34 120.66 34 121.32 34 122 C33.34 122 32.68 122 32 122 C32 122.66 32 123.32 32 124 C23.59111423 130.77630954 13.29933683 132.78627059 3 135 C3 134.34 3 133.68 3 133 C0.36 133 -2.28 133 -5 133 C-5 133.66 -5 134.32 -5 135 C-20.6054518 133.35732086 -33.516516 127.84700751 -44 116 C-47.84167618 111.04654933 -48.72256279 106.11749055 -49 100 C-49.66 100 -50.32 100 -51 100 C-51.09765625 93.84765625 -51.09765625 93.84765625 -51 92 C-48.88172719 89.88172719 -44.43171666 90.53026316 -41.5 90.375 C-40.68225098 90.32996338 -39.86450195 90.28492676 -39.02197266 90.23852539 C-33.55534843 89.97668051 -28.41326685 90.09778886 -23 91 C-22.71125 92.216875 -22.4225 93.43375 -22.125 94.6875 C-20.96699655 99.49542998 -20.96699655 99.49542998 -19 104 C-16.7193293 105.21297649 -16.7193293 105.21297649 -14 106 C-13.13375 106.53625 -12.2675 107.0725 -11.375 107.625 C-5.61182619 109.9729597 0.30096778 109.61110163 6.3125 108.25 C10.81421093 106.15618096 14.22329155 104.16506267 17 100 C17.79532226 95.06063017 17.85156757 91.21283867 14.9375 87.0625 C9.74617214 83.41752512 4.551547 81.78851649 -1.56640625 80.51953125 C-13.89295906 77.88801998 -28.42054172 74.64178644 -38 66 C-38 65.34 -38 64.68 -38 64 C-38.66 64 -39.32 64 -40 64 C-40 63.34 -40 62.68 -40 62 C-40.66 62 -41.32 62 -42 62 C-42 61.01 -42 60.02 -42 59 C-42.66 59 -43.32 59 -44 59 C-44 58.01 -44 57.02 -44 56 C-44.66 56 -45.32 56 -46 56 C-46.5361079 53.81619325 -47.05320098 51.62771417 -47.5625 49.4375 C-47.99755859 47.61025391 -47.99755859 47.61025391 -48.44140625 45.74609375 C-49.02506262 41.8319227 -48.72947028 38.86896263 -48 35 C-47.7834375 33.1128125 -47.7834375 33.1128125 -47.5625 31.1875 C-47 28 -47 28 -45 26 C-44.3574765 23.93125966 -44.3574765 23.93125966 -44 22 C-43.34 22 -42.68 22 -42 22 C-42 20.68 -42 19.36 -42 18 C-40.35546875 16.18359375 -40.35546875 16.18359375 -38.1875 14.4375 C-35.20654277 12.02293737 -35.20654277 12.02293737 -32.46484375 9.3515625 C-30.09747001 7.16726567 -27.05352225 6.84820062 -24 6 C-23.67 5.34 -23.34 4.68 -23 4 C-20.93359375 3.5859375 -20.93359375 3.5859375 -18.4375 3.375 C-17.61121094 3.30023438 -16.78492188 3.22546875 -15.93359375 3.1484375 C-14.97646484 3.07496094 -14.97646484 3.07496094 -14 3 C-14 2.34 -14 1.68 -14 1 C-4.58997722 0.81548975 -4.58997722 0.81548975 0 2 C0 1.34 0 0.68 0 0 Z " fill="#112D54" transform="translate(146,175)"/>
<path d="M0 0 C10.56 0 21.12 0 32 0 C32 52.47 32 104.94 32 159 C21.44 159 10.88 159 0 159 C0 106.53 0 54.06 0 0 Z " fill="#122E55" transform="translate(250,166)"/>
<path d="M0 0 C-2 2 -2 2 -4.79736328 2.22705078 C-5.95993652 2.21657715 -7.12250977 2.20610352 -8.3203125 2.1953125 C-10.20556641 2.18564453 -10.20556641 2.18564453 -12.12890625 2.17578125 C-13.44761719 2.15902344 -14.76632812 2.14226562 -16.125 2.125 C-17.46483721 2.11496983 -18.80468152 2.10584404 -20.14453125 2.09765625 C-23.42986573 2.07402075 -26.71484465 2.04107234 -30 2 C-29.99476318 3.26183105 -29.98952637 4.52366211 -29.98413086 5.82373047 C-29.96606542 10.49397068 -29.95456231 15.16420779 -29.94506836 19.83447266 C-29.94003169 21.85791543 -29.93320211 23.88135456 -29.92456055 25.90478516 C-29.91246588 28.80892843 -29.90676512 31.71302369 -29.90234375 34.6171875 C-29.89718246 35.52556366 -29.89202118 36.43393982 -29.88670349 37.36984253 C-29.88662796 38.21056305 -29.88655243 39.05128357 -29.88647461 39.91748047 C-29.884254 40.65916473 -29.88203339 41.400849 -29.87974548 42.16500854 C-30 44 -30 44 -31 46 C-29.01432292 45.93489583 -27.02864583 45.86979167 -25.04296875 45.8046875 C-23 46 -23 46 -20 48 C-24.54248615 49.37651096 -27.54553473 48.37464064 -32 47 C-32.02527002 40.46721214 -32.04283292 33.93443679 -32.05493164 27.40161133 C-32.05997317 25.17732268 -32.06680623 22.95303737 -32.07543945 20.72875977 C-32.08751298 17.53921691 -32.09322996 14.34971771 -32.09765625 11.16015625 C-32.10281754 10.15912369 -32.10797882 9.15809113 -32.11329651 8.12672424 C-32.11337204 7.20584518 -32.11344757 6.28496613 -32.11352539 5.33618164 C-32.115746 4.52121719 -32.11796661 3.70625275 -32.12025452 2.86659241 C-32 1 -32 1 -31 0 C-26.88863526 -0.33142597 -22.76653677 -0.42648806 -18.64428711 -0.55761719 C-16.5743665 -0.62461591 -14.50504604 -0.70240255 -12.43554688 -0.78125 C-11.13810547 -0.82507813 -9.84066406 -0.86890625 -8.50390625 -0.9140625 C-7.30580322 -0.9548291 -6.1077002 -0.9955957 -4.87329102 -1.03759766 C-2 -1 -2 -1 0 0 Z " fill="#53708A" transform="translate(373,194)"/>
<path d="M0 0 C9.57 0 19.14 0 29 0 C29.33 0.99 29.66 1.98 30 3 C20.43 3.33 10.86 3.66 1 4 C0.67 2.68 0.34 1.36 0 0 Z " fill="#36455A" transform="translate(310,166)"/>
<path d="M0 0 C0 3.41958359 -0.26607656 3.78831181 -2.5 6.1875 C-8.20100208 11.73442095 -15.86692116 14.70319886 -23 18 C-23.33 17.01 -23.66 16.02 -24 15 C-22.9275 14.608125 -21.855 14.21625 -20.75 13.8125 C-17.83204225 12.59034936 -16.98158358 11.97656092 -14.9375 9.375 C-12.44128958 6.31512916 -10.7825601 6.57560697 -7 6 C-5.90833725 4.06669397 -5.90833725 4.06669397 -5 2 C-2.375 0.75 -2.375 0.75 0 0 Z " fill="#233754" transform="translate(418,250)"/>
<path d="M0 0 C0.33 0.66 0.66 1.32 1 2 C1.99 2.33 2.98 2.66 4 3 C3.34 3 2.68 3 2 3 C0.86008186 11.27665796 0.86008186 11.27665796 2.0625 19.4375 C3.07215148 23.27417562 2.90811762 24.6077909 1 28 C1.99 28.33 2.98 28.66 4 29 C3.34 29.99 2.68 30.98 2 32 C2 31.01 2 30.02 2 29 C1.34 29 0.68 29 0 29 C-0.5361079 26.81619325 -1.05320098 24.62771417 -1.5625 22.4375 C-1.99755859 20.61025391 -1.99755859 20.61025391 -2.44140625 18.74609375 C-3.02526389 14.8305729 -2.73338754 11.86988772 -2 8 C-1.835 6.72125 -1.67 5.4425 -1.5 4.125 C-1 1 -1 1 0 0 Z " fill="#646F86" transform="translate(100,202)"/>
<path d="M0 0 C0.33 0.66 0.66 1.32 1 2 C1.66 2.33 2.32 2.66 3 3 C-4.42857143 5.14285714 -4.42857143 5.14285714 -8 6 C-8 5.34 -8 4.68 -8 4 C-10.64 4 -13.28 4 -16 4 C-16 4.66 -16 5.32 -16 6 C-20.71403788 5.52060632 -24.66579301 5.03165952 -29 3 C-27 1 -27 1 -24.29443359 0.86474609 C-23.17375488 0.91711426 -22.05307617 0.96948242 -20.8984375 1.0234375 C-19.68671875 1.075 -18.475 1.1265625 -17.2265625 1.1796875 C-15.32003906 1.27636719 -15.32003906 1.27636719 -13.375 1.375 C-12.09625 1.43171875 -10.8175 1.4884375 -9.5 1.546875 C-6.33279313 1.68869023 -3.16633887 1.84013496 0 2 C0 1.34 0 0.68 0 0 Z " fill="#505F75" transform="translate(157,304)"/>
<path d="M0 0 C1.12563103 0.00212242 1.12563103 0.00212242 2.27400208 0.00428772 C4.66838585 0.00988065 7.06267578 0.02243181 9.45703125 0.03515625 C11.08137886 0.04017217 12.70572793 0.04473491 14.33007812 0.04882812 C18.30993194 0.05984777 22.28971569 0.07710752 26.26953125 0.09765625 C26.26953125 0.75765625 26.26953125 1.41765625 26.26953125 2.09765625 C21.64349785 2.29034417 17.01721309 2.46899659 12.39013672 2.63476562 C10.81674744 2.69309932 9.24349443 2.7552398 7.67041016 2.82128906 C5.40682796 2.91566457 3.1431059 2.99625649 0.87890625 3.07421875 C-0.17287811 3.12251328 -0.17287811 3.12251328 -1.24591064 3.17178345 C-4.94621552 3.28481164 -7.59195761 3.15950325 -10.73046875 1.09765625 C-7.09813773 -0.11312076 -3.77924888 -0.02678539 0 0 Z " fill="#182948" transform="translate(189.73046875,146.90234375)"/>
<path d="M0 0 C8.58 0 17.16 0 26 0 C25.34 1.32 24.68 2.64 24 4 C15.62001514 4.1545489 7.95363203 3.98261201 0 1 C0 0.67 0 0.34 0 0 Z " fill="#38485E" transform="translate(340,166)"/>
<path d="M0 0 C0.474375 0.495 0.94875 0.99 1.4375 1.5 C2.75923698 3.11542197 2.75923698 3.11542197 4 3 C4.13684211 11.21052632 4.13684211 11.21052632 3 15 C2.7834375 16.5778125 2.7834375 16.5778125 2.5625 18.1875 C2.376875 19.115625 2.19125 20.04375 2 21 C1.34 21.33 0.68 21.66 0 22 C-1.22625047 19.54749907 -1.03425355 18.15689565 -0.87890625 15.4296875 C-0.83056641 14.53378906 -0.78222656 13.63789063 -0.73242188 12.71484375 C-0.67634766 11.77769531 -0.62027344 10.84054687 -0.5625 9.875 C-0.51029297 8.93011719 -0.45808594 7.98523438 -0.40429688 7.01171875 C-0.27443239 4.6741581 -0.1394613 2.33700455 0 0 Z " fill="#4B5875" transform="translate(189,260)"/>
<path d="M0 0 C1.04474487 0.08640747 1.04474487 0.08640747 2.1105957 0.17456055 C2.86791992 0.2293457 3.62524414 0.28413086 4.40551758 0.34057617 C5.19120117 0.4134082 5.97688477 0.48624023 6.78637695 0.5612793 C7.58366211 0.62250977 8.38094727 0.68374023 9.20239258 0.74682617 C11.16904648 0.89991899 13.13416685 1.07248639 15.09887695 1.2487793 C15.09887695 1.5787793 15.09887695 1.9087793 15.09887695 2.2487793 C9.37306281 4.18426577 4.22420234 5.8738125 -1.90112305 5.2487793 C-2.89112305 4.5887793 -3.88112305 3.9287793 -4.90112305 3.2487793 C-2.45543683 0.32131631 -2.45543683 0.32131631 0 0 Z " fill="#1A2C4F" transform="translate(150.901123046875,145.751220703125)"/>
<path d="M0 0 C3.83520308 3.28731693 6.32465344 7.25147171 8 12 C7.67 12.66 7.34 13.32 7 14 C6.01 13.67 5.02 13.34 4 13 C3.67 11.02 3.34 9.04 3 7 C0.03 6.505 0.03 6.505 -3 6 C-2.01 4.02 -1.02 2.04 0 0 Z " fill="#263D5B" transform="translate(181,192)"/>
<path d="M0 0 C1.58357459 0.31127516 3.16684993 0.62407289 4.75 0.9375 C6.07257813 1.19853516 6.07257813 1.19853516 7.421875 1.46484375 C9.63235053 1.92368488 11.81512068 2.43336074 14 3 C14 3.66 14 4.32 14 5 C7.39384924 6.5013979 1.58010343 5.30737687 -5 4 C-5 3.34 -5 2.68 -5 2 C-3.35 2 -1.7 2 0 2 C0 1.34 0 0.68 0 0 Z " fill="#324762" transform="translate(146,175)"/>
<path d="M0 0 C2.33760758 3.71267087 1.9611085 4.19445748 1 9 C-11.375 9.495 -11.375 9.495 -24 10 C-24.33 9.34 -24.66 8.68 -25 8 C-16.75 8 -8.5 8 0 8 C-0.33 6.35 -0.66 4.7 -1 3 C-0.67 2.01 -0.34 1.02 0 0 Z " fill="#5A657F" transform="translate(188,206)"/>
<path d="M0 0 C3.87153779 3.46400749 5.67072954 5.98967289 7 11 C7.37125 12.11375 7.7425 13.2275 8.125 14.375 C8.41375 15.24125 8.7025 16.1075 9 17 C8.34 17.33 7.68 17.66 7 18 C5.76078698 15.02588876 4.69941596 12.14737182 4 9 C3.34 9 2.68 9 2 9 C0.50178941 5.62902617 0 3.79557881 0 0 Z " fill="#606E82" transform="translate(418,186)"/>
<path d="M0 0 C0.845625 0.515625 1.69125 1.03125 2.5625 1.5625 C6.70891974 3.29645734 8.63051388 2.81464996 13 2 C15.36563225 1.95720073 17.7171356 1.99737379 20.08203125 2.0625 C22.08641462 2.13089498 22.08641462 2.13089498 24 1 C24 1.99 24 2.98 24 4 C16.41 4.33 8.82 4.66 1 5 C0.67 3.35 0.34 1.7 0 0 Z " fill="#0E2344" transform="translate(164,210)"/>
<path d="M0 0 C0.80244141 0.09345703 1.60488281 0.18691406 2.43164062 0.28320312 C3.26501953 0.38697266 4.09839844 0.49074219 4.95703125 0.59765625 C5.80201172 0.69755859 6.64699219 0.79746094 7.51757812 0.90039062 C9.60227322 1.14772733 11.68600409 1.40316666 13.76953125 1.66015625 C13.76953125 1.99015625 13.76953125 2.32015625 13.76953125 2.66015625 C6.83953125 2.66015625 -0.09046875 2.66015625 -7.23046875 2.66015625 C-7.23046875 2.00015625 -7.23046875 1.34015625 -7.23046875 0.66015625 C-4.24715569 -0.33428144 -3.02208116 -0.3643644 0 0 Z " fill="#2C3E5A" transform="translate(165.23046875,161.33984375)"/>
<path d="M0 0 C2.12087964 4.24175928 2.25765477 6.3622141 2 11 C1.67 11.66 1.34 12.32 1 13 C3.97851562 12.90234375 3.97851562 12.90234375 6.95703125 12.8046875 C9 13 9 13 12 15 C7.48281619 16.36884358 4.41225737 15.47075246 0 14 C0 9.38 0 4.76 0 0 Z " fill="#4D667F" transform="translate(341,227)"/>
<path d="M0 0 C0.99 0.66 1.98 1.32 3 2 C2.50168276 5.68754757 1.89932357 7.60490662 -1 10 C-1.99 8.02 -2.98 6.04 -4 4 C-2.68 2.68 -1.36 1.36 0 0 Z " fill="#2E4465" transform="translate(421,238)"/>
<path d="M0 0 C1.32 0 2.64 0 4 0 C4 0.66 4 1.32 4 2 C0.09258167 5.02509806 -4.33138019 7.39516194 -9 9 C-9 8.34 -9 7.68 -9 7 C-8.34 7 -7.68 7 -7 7 C-6.67 5.68 -6.34 4.36 -6 3 C-5.195625 2.87625 -4.39125 2.7525 -3.5625 2.625 C-2.716875 2.41875 -1.87125 2.2125 -1 2 C-0.67 1.34 -0.34 0.68 0 0 Z " fill="#727E92" transform="translate(174,297)"/>
<path d="M0 0 C0.33 0.66 0.66 1.32 1 2 C0.30132812 2.04898438 -0.39734375 2.09796875 -1.1171875 2.1484375 C-2.02726562 2.22320312 -2.93734375 2.29796875 -3.875 2.375 C-4.77992188 2.44460937 -5.68484375 2.51421875 -6.6171875 2.5859375 C-9.17941903 2.79568132 -9.17941903 2.79568132 -11 5 C-11.66 5 -12.32 5 -13 5 C-13 4.34 -13 3.68 -13 3 C-15.31 3 -17.62 3 -20 3 C-17.48217522 0.48217522 -16.30622471 0.63522225 -12.8125 0.375 C-11.34296875 0.26478516 -11.34296875 0.26478516 -9.84375 0.15234375 C-6.54892985 -0.02416447 -3.29812308 -0.07329162 0 0 Z " fill="#5E6B80" transform="translate(382,239)"/>
<path d="M0 0 C2.29141286 -0.05384521 4.58318188 -0.09272087 6.875 -0.125 C8.78925781 -0.15980469 8.78925781 -0.15980469 10.7421875 -0.1953125 C14 0 14 0 16 2 C15 3 15 3 11.62109375 3.09765625 C10.22652923 3.09098369 8.83198257 3.07902532 7.4375 3.0625 C6.72658203 3.05798828 6.01566406 3.05347656 5.28320312 3.04882812 C3.52209987 3.03700864 1.76103964 3.01907263 0 3 C0 2.01 0 1.02 0 0 Z " fill="#0B1E3D" transform="translate(86,161)"/>
<path d="M0 0 C6.27 0 12.54 0 19 0 C19 0.66 19 1.32 19 2 C14.62426048 2.59332061 10.42471556 3.13827236 6 3 C6 2.34 6 1.68 6 1 C4.02 1 2.04 1 0 1 C0 0.67 0 0.34 0 0 Z " fill="#172848" transform="translate(106,147)"/>
<path d="M0 0 C1.32 0.33 2.64 0.66 4 1 C-1.31926121 6.76253298 -1.31926121 6.76253298 -5 7 C-7.25 6.5625 -7.25 6.5625 -9 6 C-6.02819057 4.10134397 -3.48539917 2.64544429 0 2 C0 1.34 0 0.68 0 0 Z " fill="#5B6C84" transform="translate(122,179)"/>
<path d="M0 0 C0.66 0 1.32 0 2 0 C2.33 1.65 2.66 3.3 3 5 C3.99 5 4.98 5 6 5 C6.33 7.97 6.66 10.94 7 14 C2.95510987 10.65250472 1.40885839 6.93100435 0 2 C0 1.34 0 0.68 0 0 Z " fill="#55627B" transform="translate(97,278)"/>
<path d="M0 0 C0.66 0.33 1.32 0.66 2 1 C2 1.66 2 2.32 2 3 C-0.70879335 4.35439668 -3.00933268 4.06501451 -6 4 C-6 4.66 -6 5.32 -6 6 C-6.66 6 -7.32 6 -8 6 C-8.33 5.01 -8.66 4.02 -9 3 C-7 1 -7 1 -3.9375 0.9375 C-2.4834375 0.9684375 -2.4834375 0.9684375 -1 1 C-0.67 0.67 -0.34 0.34 0 0 Z " fill="#3D4D6B" transform="translate(390,265)"/>
<path d="M0 0 C0.33 0.99 0.66 1.98 1 3 C1.66 3 2.32 3 3 3 C4.0326802 5.78823655 4.04509293 6.8677274 3.0625 9.75 C2.711875 10.4925 2.36125 11.235 2 12 C2.99 12.33 3.98 12.66 5 13 C4.01 14.485 4.01 14.485 3 16 C3 15.01 3 14.02 3 13 C2.34 13 1.68 13 1 13 C0.1276588 10.00519083 -0.10829766 7.36424089 -0.0625 4.25 C-0.05347656 3.45078125 -0.04445313 2.6515625 -0.03515625 1.828125 C-0.02355469 1.22484375 -0.01195313 0.6215625 0 0 Z " fill="#52647F" transform="translate(99,218)"/>
<path d="M0 0 C0.86625 0.268125 1.7325 0.53625 2.625 0.8125 C5 2 5 2 5.8125 4.125 C5.874375 4.74375 5.93625 5.3625 6 6 C1 4 1 4 -1.4375 2.9375 C-4.27714594 1.89860514 -7.01093625 1.41707866 -10 1 C-10 0.67 -10 0.34 -10 0 C-3.375 -1.125 -3.375 -1.125 0 0 Z " fill="#4C5871" transform="translate(383,195)"/>
<path d="M0 0 C2.64 0.33 5.28 0.66 8 1 C8 1.66 8 2.32 8 3 C6.9275 3.12375 5.855 3.2475 4.75 3.375 C1.62136385 3.89643936 -0.33480424 4.40088254 -3 6 C-2.67 5.01 -2.34 4.02 -2 3 C-2.66 2.67 -3.32 2.34 -4 2 C-2.68 2 -1.36 2 0 2 C0 1.34 0 0.68 0 0 Z M-5 6 C-3 7 -3 7 -3 7 Z " fill="#384A68" transform="translate(132,176)"/>
<path d="M0 0 C0.33 0.66 0.66 1.32 1 2 C1.66 2 2.32 2 3 2 C3 2.99 3 3.98 3 5 C2.34 5 1.68 5 1 5 C1.99 6.485 1.99 6.485 3 8 C2.625 10.6875 2.625 10.6875 2 13 C1.01 13 0.02 13 -1 13 C-0.34 12.01 0.32 11.02 1 10 C0.35902703 7.99161804 -0.30899447 5.99172182 -1 4 C-0.625 1.625 -0.625 1.625 0 0 Z " fill="#4A5974" transform="translate(124,209)"/>
<path d="M0 0 C0 3 0 3 -1.53125 4.82421875 C-2.1809375 5.43910156 -2.830625 6.05398438 -3.5 6.6875 C-4.1496875 7.31011719 -4.799375 7.93273437 -5.46875 8.57421875 C-5.9740625 9.04472656 -6.479375 9.51523437 -7 10 C-7.66 9.67 -8.32 9.34 -9 9 C-5.67692308 2.35384615 -5.67692308 2.35384615 -2.25 0.5625 C-1.13625 0.2840625 -1.13625 0.2840625 0 0 Z " fill="#526277" transform="translate(418,250)"/>
<path d="M0 0 C1.37562854 1.28965176 2.70766393 2.62689293 4 4 C4 4.66 4 5.32 4 6 C4.66 6 5.32 6 6 6 C6.99 8.64 7.98 11.28 9 14 C8.34 14 7.68 14 7 14 C5.5393715 11.35261084 5 10.10551666 5 7 C3.68 7 2.36 7 1 7 C0.67 4.69 0.34 2.38 0 0 Z " fill="#7D8D9E" transform="translate(183,244)"/>
<path d="M0 0 C0.33 0 0.66 0 1 0 C0.67 2.97 0.34 5.94 0 9 C-1.65 9.33 -3.3 9.66 -5 10 C-5 7 -5 7 -3.0625 5 C-2.381875 4.34 -1.70125 3.68 -1 3 C-0.67 2.01 -0.34 1.02 0 0 Z " fill="#516175" transform="translate(393,227)"/>
<path d="M0 0 C5.95507399 0.3916035 10.62819824 1.37124595 16 4 C15.67 4.66 15.34 5.32 15 6 C13.68 5.67 12.36 5.34 11 5 C11 4.34 11 3.68 11 3 C10.01 3.33 9.02 3.66 8 4 C8 3.34 8 2.68 8 2 C7.236875 2.226875 6.47375 2.45375 5.6875 2.6875 C4.800625 2.790625 3.91375 2.89375 3 3 C1.33203125 1.51953125 1.33203125 1.51953125 0 0 Z " fill="#67738A" transform="translate(386,168)"/>
<path d="M0 0 C0.66 1.32 1.32 2.64 2 4 C0.625 5.5 0.625 5.5 -1 7 C-1.66 7 -2.32 7 -3 7 C-3.33 7.66 -3.66 8.32 -4 9 C-4.66 8.67 -5.32 8.34 -6 8 C-4.768606 4.30581799 -2.79208646 2.64890254 0 0 Z " fill="#41556D" transform="translate(162,276)"/>
<path d="M0 0 C5.28 0 10.56 0 16 0 C16 0.33 16 0.66 16 1 C15.26394531 1.06058594 14.52789062 1.12117187 13.76953125 1.18359375 C12.79371094 1.26738281 11.81789062 1.35117188 10.8125 1.4375 C9.84957031 1.51871094 8.88664063 1.59992188 7.89453125 1.68359375 C5.21350398 1.97666151 2.6337014 2.42703754 0 3 C0 2.01 0 1.02 0 0 Z " fill="#7D8AA8" transform="translate(132,199)"/>
<path d="M0 0 C1.32 0.33 2.64 0.66 4 1 C3.67 1.66 3.34 2.32 3 3 C2.34 3 1.68 3 1 3 C1 3.66 1 4.32 1 5 C0.34 5 -0.32 5 -1 5 C-1 5.66 -1 6.32 -1 7 C-1.66 6.67 -2.32 6.34 -3 6 C-2.67 4.68 -2.34 3.36 -2 2 C-1.34 2 -0.68 2 0 2 C0 1.34 0 0.68 0 0 Z " fill="#475972" transform="translate(181,290)"/>
<path d="M0 0 C-3.3 1.32 -6.6 2.64 -10 4 C-9.67 2.68 -9.34 1.36 -9 0 C-5.32431536 -0.91892116 -3.83619425 -0.95904856 0 0 Z " fill="#55607B" transform="translate(404,264)"/>
<path d="M0 0 C4.95 0.99 4.95 0.99 10 2 C10.33 2.99 10.66 3.98 11 5 C7.1936543 4.32829194 3.64793184 3.27253436 0 2 C0 1.34 0 0.68 0 0 Z " fill="#59687C" transform="translate(117,245)"/>
<path d="M0 0 C1.98 0 3.96 0 6 0 C6.66 1.32 7.32 2.64 8 4 C7.01 4.495 7.01 4.495 6 5 C3.98079663 3.69593116 1.98075027 2.36176581 0 1 C0 0.67 0 0.34 0 0 Z " fill="#394A60" transform="translate(110,241)"/>
<path d="M0 0 C3.96 0.33 7.92 0.66 12 1 C12 1.66 12 2.32 12 3 C8.70303895 4.09898702 7.59505097 3.87124444 4.3125 3.0625 C3.10013672 2.77052734 3.10013672 2.77052734 1.86328125 2.47265625 C0.94095703 2.23869141 0.94095703 2.23869141 0 2 C0 1.34 0 0.68 0 0 Z " fill="#2D3B58" transform="translate(130,146)"/>
<path d="M0 0 C0.66 0.66 1.32 1.32 2 2 C-1.38018531 3.04005702 -4.4780279 3.08004482 -8 3 C-8.33 2.34 -8.66 1.68 -9 1 C-5.98675805 -0.50662097 -3.31713623 -0.17770373 0 0 Z " fill="#0F2146" transform="translate(101,147)"/>
<path d="M0 0 C2.4375 0.8125 2.4375 0.8125 5 2 C5.33 2.99 5.66 3.98 6 5 C3.69 4.67 1.38 4.34 -1 4 C-0.67 2.68 -0.34 1.36 0 0 Z " fill="#384965" transform="translate(147,252)"/>
<path d="M0 0 C-2.75 1.1875 -2.75 1.1875 -6 2 C-8.375 0.625 -8.375 0.625 -10 -1 C-3.375 -2.25 -3.375 -2.25 0 0 Z " fill="#56647B" transform="translate(146,253)"/>
<path d="M0 0 C0.33 0.66 0.66 1.32 1 2 C1.99 2.33 2.98 2.66 4 3 C3.34 3 2.68 3 2 3 C1.67 4.98 1.34 6.96 1 9 C0.34 8.67 -0.32 8.34 -1 8 C-1.04241723 5.66705225 -1.04092937 3.33297433 -1 1 C-0.67 0.67 -0.34 0.34 0 0 Z " fill="#53637B" transform="translate(100,202)"/>
<path d="M0 0 C1.65 0 3.3 0 5 0 C4.34 1.65 3.68 3.3 3 5 C1.68 4.67 0.36 4.34 -1 4 C-0.67 2.68 -0.34 1.36 0 0 Z " fill="#243C61" transform="translate(158,233)"/>
<path d="M0 0 C3.465 1.98 3.465 1.98 7 4 C7 4.33 7 4.66 7 5 C5.02 5 3.04 5 1 5 C0.67 3.35 0.34 1.7 0 0 Z " fill="#091E3A" transform="translate(164,210)"/>
<path d="M0 0 C0.99 0.33 1.98 0.66 3 1 C3.6875 3.0625 3.6875 3.0625 4 5 C2.68 5 1.36 5 0 5 C0 3.35 0 1.7 0 0 Z " fill="#59667C" transform="translate(185,200)"/>
<path d="" fill="#FFFFFF" transform="translate(0,0)"/>
</svg>
